<?xml version="1.0" encoding="UTF-8" standalone="no"?>
<svg
   version="1.1"
   width="84.838783mm"
   height="64.234619mm"
   viewBox="0 0 84.838784 64.234618"
   id="svg180"
   sodipodi:docname="pcbb.svg"
   xmlns:inkscape="http://www.inkscape.org/namespaces/inkscape"
   xmlns:sodipodi="http://sodipodi.sourceforge.net/DTD/sodipodi-0.dtd"
   xmlns="http://www.w3.org/2000/svg"
   xmlns:svg="http://www.w3.org/2000/svg">
  <defs
     id="defs184" />
  <sodipodi:namedview
     id="namedview182"
     pagecolor="#ffffff"
     bordercolor="#000000"
     borderopacity="0.25"
     inkscape:showpageshadow="2"
     inkscape:pageopacity="0.0"
     inkscape:pagecheckerboard="0"
     inkscape:deskcolor="#d1d1d1"
     inkscape:document-units="mm" />
  <title
     id="title2">SVG Image created as pcbb.svg date 2025/01/24 02:55:38 </title>
  <desc
     id="desc4">Image generated by PCBNEW </desc>
  <g
     style="fill:#000000;fill-opacity:1;stroke:#000000;stroke-linecap:round;stroke-linejoin:round;stroke-opacity:1"
     id="g42"
     transform="translate(-108.16951,-58.308979)">
    <path
       style="fill:#02ffee;fill-opacity:0.4;fill-rule:evenodd;stroke:none"
       d="m 160.4392,66.2886 v -4.3 h -0.7 v 4.3 z"
       id="path6" />
    <path
       style="fill:#02ffee;fill-opacity:0.4;fill-rule:evenodd;stroke:none"
       d="m 159.4392,66.2886 v -4.3 h -0.7 v 4.3 z"
       id="path8" />
    <path
       style="fill:#02ffee;fill-opacity:0.4;fill-rule:evenodd;stroke:none"
       d="m 158.4392,66.2886 v -4.3 h -0.7 v 4.3 z"
       id="path10" />
    <path
       style="fill:#02ffee;fill-opacity:0.4;fill-rule:evenodd;stroke:none"
       d="m 157.4392,66.2886 v -4.3 h -0.7 v 4.3 z"
       id="path12" />
    <path
       style="fill:#02ffee;fill-opacity:0.4;fill-rule:evenodd;stroke:none"
       d="m 156.4392,66.2886 v -4.3 h -0.7 v 4.3 z"
       id="path14" />
    <path
       style="fill:#02ffee;fill-opacity:0.4;fill-rule:evenodd;stroke:none"
       d="m 155.4392,66.2886 v -4.3 h -0.7 v 4.3 z"
       id="path16" />
    <path
       style="fill:#02ffee;fill-opacity:0.4;fill-rule:evenodd;stroke:none"
       d="m 154.4392,66.2886 v -4.3 h -0.7 v 4.3 z"
       id="path18" />
    <path
       style="fill:#02ffee;fill-opacity:0.4;fill-rule:evenodd;stroke:none"
       d="m 153.4392,66.2886 v -4.3 h -0.7 v 4.3 z"
       id="path20" />
    <path
       style="fill:#02ffee;fill-opacity:0.4;fill-rule:evenodd;stroke:none"
       d="m 152.4392,66.2886 v -4.3 h -0.7 v 4.3 z"
       id="path22" />
    <path
       style="fill:#02ffee;fill-opacity:0.4;fill-rule:evenodd;stroke:none"
       d="m 151.4392,66.2886 v -4.3 h -0.7 v 4.3 z"
       id="path24" />
    <path
       style="fill:#02ffee;fill-opacity:0.4;fill-rule:evenodd;stroke:none"
       d="m 150.4392,66.2886 v -4.3 h -0.7 v 4.3 z"
       id="path26" />
    <path
       style="fill:#02ffee;fill-opacity:0.4;fill-rule:evenodd;stroke:none"
       d="m 147.4392,66.2886 v -4.3 h -0.7 v 4.3 z"
       id="path28" />
    <path
       style="fill:#02ffee;fill-opacity:0.4;fill-rule:evenodd;stroke:none"
       d="m 146.4392,66.2886 v -4.3 h -0.7 v 4.3 z"
       id="path30" />
    <path
       style="fill:#02ffee;fill-opacity:0.4;fill-rule:evenodd;stroke:none"
       d="m 145.4392,66.2886 v -4.3 h -0.7 v 4.3 z"
       id="path32" />
    <path
       style="fill:#02ffee;fill-opacity:0.4;fill-rule:evenodd;stroke:none"
       d="m 144.4392,66.2886 v -4.3 h -0.7 v 4.3 z"
       id="path34" />
    <path
       style="fill:#02ffee;fill-opacity:0.4;fill-rule:evenodd;stroke:none"
       d="m 143.4392,66.2886 v -4.3 h -0.7 v 4.3 z"
       id="path36" />
    <path
       style="fill:#02ffee;fill-opacity:0.4;fill-rule:evenodd;stroke:none"
       d="m 142.4392,66.2886 v -4.3 h -0.7 v 4.3 z"
       id="path38" />
    <path
       style="fill:#02ffee;fill-opacity:0.4;fill-rule:evenodd;stroke:none"
       d="m 141.4392,66.2886 v -4.3 h -0.7 v 4.3 z"
       id="path40" />
  </g>
  <g
     style="fill:none;stroke:#d0d2cd;stroke-width:0.25;stroke-linecap:round;stroke-linejoin:round;stroke-opacity:1"
     id="g46"
     transform="translate(-108.16951,-58.308979)">
    <path
       d="m 192.802,108.8336 c 0.1056,1.3652 0.1083,2.5866 0.008,3.7762"
       id="path44" />
  </g>
  <g
     style="fill:none;stroke:#d0d2cd;stroke-width:0.1;stroke-linecap:round;stroke-linejoin:round;stroke-opacity:1"
     id="g50"
     transform="translate(-108.16951,-58.308979)">
    <path
       d="m 138.6487,69.0886 c -5.83,0 -6.4289,-7.1636 -9.4306,-9.628"
       id="path48" />
  </g>
  <g
     style="fill:none;stroke:#d0d2cd;stroke-width:0.25;stroke-linecap:round;stroke-linejoin:round;stroke-opacity:1"
     id="g62"
     transform="translate(-108.16951,-58.308979)">
    <circle
       cx="175.28889"
       cy="63.648602"
       r="3.3499999"
       id="circle52" />
    <path
       d="m 188.9195,91.5449 c 1.2784,3.651 3.4486,11.6819 3.8825,17.2887"
       id="path54" />
    <path
       d="m 192.8103,112.6098 c -0.4382,5.2097 -2.8472,9.8088 -6.7005,9.8088"
       id="path56" />
    <path
       d="m 129.2181,59.4606 c -2.426,-1.9916 -6.4214,-0.9139 -8.034,1.8279"
       id="path58" />
    <path
       d="m 108.3758,108.8336 c -0.1056,1.3652 -0.1083,2.5866 -0.008,3.7762"
       id="path60" />
  </g>
  <g
     style="fill:none;stroke:#d0d2cd;stroke-width:0.1;stroke-linecap:round;stroke-linejoin:round;stroke-opacity:1"
     id="g66"
     transform="translate(-108.16951,-58.308979)">
    <path
       d="m 162.5291,69.0886 c 5.83,0 6.4289,-7.1636 9.4306,-9.628"
       id="path64" />
  </g>
  <g
     style="fill:none;stroke:#d0d2cd;stroke-width:0.25;stroke-linecap:round;stroke-linejoin:round;stroke-opacity:1"
     id="g84"
     transform="translate(-108.16951,-58.308979)">
    <path
       d="m 183.5297,75.0592 c 1.1817,4.6951 3.1215,10.6107 4.4941,14.135"
       id="path68" />
    <path
       d="m 108.3675,112.6098 c 0.4382,5.2097 2.8472,9.8088 6.7005,9.8088"
       id="path70" />
    <path
       d="m 120.3149,63.4804 c -1.0982,3.6996 -1.5342,7.0785 -2.6668,11.5788"
       id="path72" />
    <path
       d="m 117.6481,75.0592 c -1.1817,4.6951 -3.1215,10.6107 -4.4942,14.135"
       id="path74" />
    <circle
       cx="113.5889"
       cy="110.0686"
       r="3.3499999"
       id="circle76" />
    <circle
       cx="187.5889"
       cy="110.0686"
       r="3.3499999"
       id="circle78" />
    <path
       d="m 115.068,122.4186 h 71.0418"
       id="path80" />
    <path
       d="m 112.2583,91.5449 c -1.2784,3.651 -3.4486,11.6819 -3.8825,17.2887"
       id="path82" />
  </g>
  <g
     style="fill:none;stroke:#d0d2cd;stroke-width:0.1;stroke-linecap:round;stroke-linejoin:round;stroke-opacity:1"
     id="g88"
     transform="translate(-108.16951,-58.308979)">
    <path
       d="m 160.7392,69.0886 h 1.7899"
       id="path86" />
  </g>
  <g
     style="fill:none;stroke:#d0d2cd;stroke-width:0.25;stroke-linecap:round;stroke-linejoin:round;stroke-opacity:1"
     id="g100"
     transform="translate(-108.16951,-58.308979)">
    <path
       d="m 180.8629,63.4804 c 1.0982,3.6996 1.5342,7.0785 2.6668,11.5788"
       id="path90" />
    <path
       d="m 179.9937,61.2885 c 0.3935,0.669 0.6451,1.4371 0.8692,2.1919"
       id="path92" />
    <path
       d="m 121.1841,61.2885 c -0.3935,0.669 -0.6451,1.4371 -0.8692,2.1919"
       id="path94" />
    <circle
       cx="125.8889"
       cy="63.648602"
       r="3.3499999"
       id="circle96" />
    <path
       d="m 188.0238,89.1942 c 0.2965,0.7612 0.5666,1.4108 0.8957,2.3507"
       id="path98" />
  </g>
  <g
     style="fill:none;stroke:#d0d2cd;stroke-width:0.1;stroke-linecap:round;stroke-linejoin:round;stroke-opacity:1"
     id="g104"
     transform="translate(-108.16951,-58.308979)">
    <path
       d="m 140.4389,69.0886 h -1.7902"
       id="path102" />
  </g>
  <g
     style="fill:none;stroke:#d0d2cd;stroke-width:0.25;stroke-linecap:round;stroke-linejoin:round;stroke-opacity:1"
     id="g110"
     transform="translate(-108.16951,-58.308979)">
    <path
       d="m 171.9597,59.4606 c 2.426,-1.9916 6.4214,-0.9139 8.034,1.8279"
       id="path106" />
    <path
       d="m 113.1539,89.1942 c -0.2964,0.7612 -0.5665,1.4108 -0.8956,2.3507"
       id="path108" />
  </g>
  <g
     style="fill:none;stroke:#d0d2cd;stroke-width:0.1;stroke-linecap:round;stroke-linejoin:round;stroke-opacity:1"
     id="g170"
     transform="translate(-108.16951,-58.308979)">
    <path
       d="m 160.7392,61.1886 v 7.9"
       id="path112" />
    <path
       d="m 160.2392,60.6886 0.5,0.5"
       id="path114" />
    <path
       d="m 150.0392,60.6886 h 10.2"
       id="path116" />
    <path
       d="m 150.0392,60.6886 -0.5,0.5"
       id="path118" />
    <path
       d="m 149.5392,61.1886 v 6.95"
       id="path120" />
    <path
       d="m 147.6392,61.1886 v 6.95"
       id="path122" />
    <path
       d="m 147.1392,60.6886 0.5,0.5"
       id="path124" />
    <path
       d="m 140.9392,60.6886 h 6.2"
       id="path126" />
    <path
       d="m 140.9392,60.6886 -0.5,0.5"
       id="path128" />
    <path
       d="m 140.4392,61.1886 v 7.9"
       id="path130" />
    <path
       d="m 147.6392,68.1386 a 0.95,0.95 0 0 0 1.9,0"
       id="path132" />
    <path
       style="fill:#4d7fc4;fill-opacity:1;fill-rule:evenodd;stroke:none"
       d="m 160.4392,66.2886 v -4.3 h -0.7 v 4.3 z"
       id="path134" />
    <path
       style="fill:#4d7fc4;fill-opacity:1;fill-rule:evenodd;stroke:none"
       d="m 159.4392,66.2886 v -4.3 h -0.7 v 4.3 z"
       id="path136" />
    <path
       style="fill:#4d7fc4;fill-opacity:1;fill-rule:evenodd;stroke:none"
       d="m 158.4392,66.2886 v -4.3 h -0.7 v 4.3 z"
       id="path138" />
    <path
       style="fill:#4d7fc4;fill-opacity:1;fill-rule:evenodd;stroke:none"
       d="m 157.4392,66.2886 v -4.3 h -0.7 v 4.3 z"
       id="path140" />
    <path
       style="fill:#4d7fc4;fill-opacity:1;fill-rule:evenodd;stroke:none"
       d="m 156.4392,66.2886 v -4.3 h -0.7 v 4.3 z"
       id="path142" />
    <path
       style="fill:#4d7fc4;fill-opacity:1;fill-rule:evenodd;stroke:none"
       d="m 155.4392,66.2886 v -4.3 h -0.7 v 4.3 z"
       id="path144" />
    <path
       style="fill:#4d7fc4;fill-opacity:1;fill-rule:evenodd;stroke:none"
       d="m 154.4392,66.2886 v -4.3 h -0.7 v 4.3 z"
       id="path146" />
    <path
       style="fill:#4d7fc4;fill-opacity:1;fill-rule:evenodd;stroke:none"
       d="m 153.4392,66.2886 v -4.3 h -0.7 v 4.3 z"
       id="path148" />
    <path
       style="fill:#4d7fc4;fill-opacity:1;fill-rule:evenodd;stroke:none"
       d="m 152.4392,66.2886 v -4.3 h -0.7 v 4.3 z"
       id="path150" />
    <path
       style="fill:#4d7fc4;fill-opacity:1;fill-rule:evenodd;stroke:none"
       d="m 151.4392,66.2886 v -4.3 h -0.7 v 4.3 z"
       id="path152" />
    <path
       style="fill:#4d7fc4;fill-opacity:1;fill-rule:evenodd;stroke:none"
       d="m 150.4392,66.2886 v -4.3 h -0.7 v 4.3 z"
       id="path154" />
    <path
       style="fill:#4d7fc4;fill-opacity:1;fill-rule:evenodd;stroke:none"
       d="m 147.4392,66.2886 v -4.3 h -0.7 v 4.3 z"
       id="path156" />
    <path
       style="fill:#4d7fc4;fill-opacity:1;fill-rule:evenodd;stroke:none"
       d="m 146.4392,66.2886 v -4.3 h -0.7 v 4.3 z"
       id="path158" />
    <path
       style="fill:#4d7fc4;fill-opacity:1;fill-rule:evenodd;stroke:none"
       d="m 145.4392,66.2886 v -4.3 h -0.7 v 4.3 z"
       id="path160" />
    <path
       style="fill:#4d7fc4;fill-opacity:1;fill-rule:evenodd;stroke:none"
       d="m 144.4392,66.2886 v -4.3 h -0.7 v 4.3 z"
       id="path162" />
    <path
       style="fill:#4d7fc4;fill-opacity:1;fill-rule:evenodd;stroke:none"
       d="m 143.4392,66.2886 v -4.3 h -0.7 v 4.3 z"
       id="path164" />
    <path
       style="fill:#4d7fc4;fill-opacity:1;fill-rule:evenodd;stroke:none"
       d="m 142.4392,66.2886 v -4.3 h -0.7 v 4.3 z"
       id="path166" />
    <path
       style="fill:#4d7fc4;fill-opacity:1;fill-rule:evenodd;stroke:none"
       d="m 141.4392,66.2886 v -4.3 h -0.7 v 4.3 z"
       id="path168" />
  </g>
  <g
     style="fill:none;stroke:#4d7fc4;stroke-width:0.5;stroke-linecap:round;stroke-linejoin:round;stroke-opacity:1"
     id="g178"
     transform="translate(-108.16951,-58.308979)">
    <path
       d="m 154.0892,64.1386 h 6"
       id="path172" />
    <path
       d="m 152.0892,64.1386 h -2"
       id="path174" />
    <path
       d="m 145.1699,64.1406 h 1.853"
       id="path176" />
  </g>
</svg>
