<?xml version="1.0" encoding="UTF-8" standalone="no"?>
<svg
   version="1.1"
   width="84.838783mm"
   height="64.234619mm"
   viewBox="0 0 84.838784 64.234618"
   id="svg192"
   sodipodi:docname="pcbf.svg"
   xmlns:inkscape="http://www.inkscape.org/namespaces/inkscape"
   xmlns:sodipodi="http://sodipodi.sourceforge.net/DTD/sodipodi-0.dtd"
   xmlns="http://www.w3.org/2000/svg"
   xmlns:svg="http://www.w3.org/2000/svg">
  <defs
     id="defs196" />
  <sodipodi:namedview
     id="namedview194"
     pagecolor="#ffffff"
     bordercolor="#000000"
     borderopacity="0.25"
     inkscape:showpageshadow="2"
     inkscape:pageopacity="0.0"
     inkscape:pagecheckerboard="0"
     inkscape:deskcolor="#d1d1d1"
     inkscape:document-units="mm" />
  <title
     id="title2">SVG Image created as pcbf.svg date 2025/01/24 02:55:38 </title>
  <desc
     id="desc4">Image generated by PCBNEW </desc>
  <g
     style="fill:#000000;fill-opacity:1;stroke:#000000;stroke-linecap:round;stroke-linejoin:round;stroke-opacity:1"
     id="g42"
     transform="translate(-103.99391,-58.308979)">
    <path
       style="fill:#d864ff;fill-opacity:0.4;fill-rule:evenodd;stroke:none"
       d="m 136.563,66.2886 v -4.3 h 0.7 v 4.3 z"
       id="path6" />
    <path
       style="fill:#d864ff;fill-opacity:0.4;fill-rule:evenodd;stroke:none"
       d="m 137.563,66.2886 v -4.3 h 0.7 v 4.3 z"
       id="path8" />
    <path
       style="fill:#d864ff;fill-opacity:0.4;fill-rule:evenodd;stroke:none"
       d="m 138.563,66.2886 v -4.3 h 0.7 v 4.3 z"
       id="path10" />
    <path
       style="fill:#d864ff;fill-opacity:0.4;fill-rule:evenodd;stroke:none"
       d="m 139.563,66.2886 v -4.3 h 0.7 v 4.3 z"
       id="path12" />
    <path
       style="fill:#d864ff;fill-opacity:0.4;fill-rule:evenodd;stroke:none"
       d="m 140.563,66.2886 v -4.3 h 0.7 v 4.3 z"
       id="path14" />
    <path
       style="fill:#d864ff;fill-opacity:0.4;fill-rule:evenodd;stroke:none"
       d="m 141.563,66.2886 v -4.3 h 0.7 v 4.3 z"
       id="path16" />
    <path
       style="fill:#d864ff;fill-opacity:0.4;fill-rule:evenodd;stroke:none"
       d="m 142.563,66.2886 v -4.3 h 0.7 v 4.3 z"
       id="path18" />
    <path
       style="fill:#d864ff;fill-opacity:0.4;fill-rule:evenodd;stroke:none"
       d="m 143.563,66.2886 v -4.3 h 0.7 v 4.3 z"
       id="path20" />
    <path
       style="fill:#d864ff;fill-opacity:0.4;fill-rule:evenodd;stroke:none"
       d="m 144.563,66.2886 v -4.3 h 0.7 v 4.3 z"
       id="path22" />
    <path
       style="fill:#d864ff;fill-opacity:0.4;fill-rule:evenodd;stroke:none"
       d="m 145.563,66.2886 v -4.3 h 0.7 v 4.3 z"
       id="path24" />
    <path
       style="fill:#d864ff;fill-opacity:0.4;fill-rule:evenodd;stroke:none"
       d="m 146.563,66.2886 v -4.3 h 0.7 v 4.3 z"
       id="path26" />
    <path
       style="fill:#d864ff;fill-opacity:0.4;fill-rule:evenodd;stroke:none"
       d="m 149.563,66.2886 v -4.3 h 0.7 v 4.3 z"
       id="path28" />
    <path
       style="fill:#d864ff;fill-opacity:0.4;fill-rule:evenodd;stroke:none"
       d="m 150.563,66.2886 v -4.3 h 0.7 v 4.3 z"
       id="path30" />
    <path
       style="fill:#d864ff;fill-opacity:0.4;fill-rule:evenodd;stroke:none"
       d="m 151.563,66.2886 v -4.3 h 0.7 v 4.3 z"
       id="path32" />
    <path
       style="fill:#d864ff;fill-opacity:0.4;fill-rule:evenodd;stroke:none"
       d="m 152.563,66.2886 v -4.3 h 0.7 v 4.3 z"
       id="path34" />
    <path
       style="fill:#d864ff;fill-opacity:0.4;fill-rule:evenodd;stroke:none"
       d="m 153.563,66.2886 v -4.3 h 0.7 v 4.3 z"
       id="path36" />
    <path
       style="fill:#d864ff;fill-opacity:0.4;fill-rule:evenodd;stroke:none"
       d="m 154.563,66.2886 v -4.3 h 0.7 v 4.3 z"
       id="path38" />
    <path
       style="fill:#d864ff;fill-opacity:0.4;fill-rule:evenodd;stroke:none"
       d="m 155.563,66.2886 v -4.3 h 0.7 v 4.3 z"
       id="path40" />
  </g>
  <g
     style="fill:none;stroke:#d0d2cd;stroke-width:0.25;stroke-linecap:round;stroke-linejoin:round;stroke-opacity:1"
     id="g46"
     transform="translate(-103.99391,-58.308979)">
    <path
       d="m 104.2002,108.8336 c -0.1056,1.3652 -0.1083,2.5866 -0.008,3.7762"
       id="path44" />
  </g>
  <g
     style="fill:none;stroke:#d0d2cd;stroke-width:0.1;stroke-linecap:round;stroke-linejoin:round;stroke-opacity:1"
     id="g50"
     transform="translate(-103.99391,-58.308979)">
    <path
       d="m 158.3535,69.0886 c 5.83,0 6.4289,-7.1636 9.4306,-9.628"
       id="path48" />
  </g>
  <g
     style="fill:none;stroke:#d0d2cd;stroke-width:0.25;stroke-linecap:round;stroke-linejoin:round;stroke-opacity:1"
     id="g62"
     transform="translate(-103.99391,-58.308979)">
    <circle
       cx="121.7133"
       cy="63.648602"
       r="3.3499999"
       id="circle52" />
    <path
       d="m 108.0827,91.5449 c -1.2784,3.651 -3.4486,11.6819 -3.8825,17.2887"
       id="path54" />
    <path
       d="m 104.1919,112.6098 c 0.4382,5.2097 2.8472,9.8088 6.7005,9.8088"
       id="path56" />
    <path
       d="m 167.7841,59.4606 c 2.426,-1.9916 6.4214,-0.9139 8.034,1.8279"
       id="path58" />
    <path
       d="m 188.6264,108.8336 c 0.1056,1.3652 0.1083,2.5866 0.008,3.7762"
       id="path60" />
  </g>
  <g
     style="fill:none;stroke:#d0d2cd;stroke-width:0.1;stroke-linecap:round;stroke-linejoin:round;stroke-opacity:1"
     id="g66"
     transform="translate(-103.99391,-58.308979)">
    <path
       d="m 134.4731,69.0886 c -5.83,0 -6.4289,-7.1636 -9.4306,-9.628"
       id="path64" />
  </g>
  <g
     style="fill:none;stroke:#d0d2cd;stroke-width:0.25;stroke-linecap:round;stroke-linejoin:round;stroke-opacity:1"
     id="g84"
     transform="translate(-103.99391,-58.308979)">
    <path
       d="m 113.4725,75.0592 c -1.1817,4.6951 -3.1215,10.6107 -4.4941,14.135"
       id="path68" />
    <path
       d="m 188.6347,112.6098 c -0.4382,5.2097 -2.8472,9.8088 -6.7005,9.8088"
       id="path70" />
    <path
       d="m 176.6873,63.4804 c 1.0982,3.6996 1.5342,7.0785 2.6668,11.5788"
       id="path72" />
    <path
       d="m 179.3541,75.0592 c 1.1817,4.6951 3.1215,10.6107 4.4942,14.135"
       id="path74" />
    <circle
       cx="183.4133"
       cy="110.0686"
       r="3.3499999"
       id="circle76" />
    <circle
       cx="109.4133"
       cy="110.0686"
       r="3.3499999"
       id="circle78" />
    <path
       d="M 181.9342,122.4186 H 110.8924"
       id="path80" />
    <path
       d="m 184.7439,91.5449 c 1.2784,3.651 3.4486,11.6819 3.8825,17.2887"
       id="path82" />
  </g>
  <g
     style="fill:none;stroke:#d0d2cd;stroke-width:0.1;stroke-linecap:round;stroke-linejoin:round;stroke-opacity:1"
     id="g88"
     transform="translate(-103.99391,-58.308979)">
    <path
       d="m 136.263,69.0886 h -1.7899"
       id="path86" />
  </g>
  <g
     style="fill:none;stroke:#d0d2cd;stroke-width:0.25;stroke-linecap:round;stroke-linejoin:round;stroke-opacity:1"
     id="g100"
     transform="translate(-103.99391,-58.308979)">
    <path
       d="m 116.1393,63.4804 c -1.0982,3.6996 -1.5342,7.0785 -2.6668,11.5788"
       id="path90" />
    <path
       d="m 117.0085,61.2885 c -0.3935,0.669 -0.6451,1.4371 -0.8692,2.1919"
       id="path92" />
    <path
       d="m 175.8181,61.2885 c 0.3935,0.669 0.6451,1.4371 0.8692,2.1919"
       id="path94" />
    <circle
       cx="171.1133"
       cy="63.648602"
       r="3.3499999"
       id="circle96" />
    <path
       d="m 108.9784,89.1942 c -0.2965,0.7612 -0.5665,1.4108 -0.8957,2.3507"
       id="path98" />
  </g>
  <g
     style="fill:none;stroke:#d0d2cd;stroke-width:0.1;stroke-linecap:round;stroke-linejoin:round;stroke-opacity:1"
     id="g104"
     transform="translate(-103.99391,-58.308979)">
    <path
       d="m 156.5633,69.0886 h 1.7902"
       id="path102" />
  </g>
  <g
     style="fill:none;stroke:#d0d2cd;stroke-width:0.25;stroke-linecap:round;stroke-linejoin:round;stroke-opacity:1"
     id="g110"
     transform="translate(-103.99391,-58.308979)">
    <path
       d="m 125.0425,59.4606 c -2.426,-1.9916 -6.4214,-0.9139 -8.034,1.8279"
       id="path106" />
    <path
       d="m 183.8483,89.1942 c 0.2964,0.7612 0.5665,1.4108 0.8956,2.3507"
       id="path108" />
  </g>
  <g
     style="fill:none;stroke:#d0d2cd;stroke-width:0.1;stroke-linecap:round;stroke-linejoin:round;stroke-opacity:1"
     id="g170"
     transform="translate(-103.99391,-58.308979)">
    <path
       d="m 136.263,61.1886 v 7.9"
       id="path112" />
    <path
       d="m 136.763,60.6886 -0.5,0.5"
       id="path114" />
    <path
       d="m 146.963,60.6886 h -10.2"
       id="path116" />
    <path
       d="m 146.963,60.6886 0.5,0.5"
       id="path118" />
    <path
       d="m 147.463,61.1886 v 6.95"
       id="path120" />
    <path
       d="m 149.363,61.1886 v 6.95"
       id="path122" />
    <path
       d="m 149.863,60.6886 -0.5,0.5"
       id="path124" />
    <path
       d="m 156.063,60.6886 h -6.2"
       id="path126" />
    <path
       d="m 156.063,60.6886 0.5,0.5"
       id="path128" />
    <path
       d="m 156.563,61.1886 v 7.9"
       id="path130" />
    <path
       d="m 147.463,68.1386 a 0.95,0.95 0 0 0 1.9,0"
       id="path132" />
    <path
       style="fill:#c83434;fill-opacity:1;fill-rule:evenodd;stroke:none"
       d="m 136.563,66.2886 v -4.3 h 0.7 v 4.3 z"
       id="path134" />
    <path
       style="fill:#c83434;fill-opacity:1;fill-rule:evenodd;stroke:none"
       d="m 137.563,66.2886 v -4.3 h 0.7 v 4.3 z"
       id="path136" />
    <path
       style="fill:#c83434;fill-opacity:1;fill-rule:evenodd;stroke:none"
       d="m 138.563,66.2886 v -4.3 h 0.7 v 4.3 z"
       id="path138" />
    <path
       style="fill:#c83434;fill-opacity:1;fill-rule:evenodd;stroke:none"
       d="m 139.563,66.2886 v -4.3 h 0.7 v 4.3 z"
       id="path140" />
    <path
       style="fill:#c83434;fill-opacity:1;fill-rule:evenodd;stroke:none"
       d="m 140.563,66.2886 v -4.3 h 0.7 v 4.3 z"
       id="path142" />
    <path
       style="fill:#c83434;fill-opacity:1;fill-rule:evenodd;stroke:none"
       d="m 141.563,66.2886 v -4.3 h 0.7 v 4.3 z"
       id="path144" />
    <path
       style="fill:#c83434;fill-opacity:1;fill-rule:evenodd;stroke:none"
       d="m 142.563,66.2886 v -4.3 h 0.7 v 4.3 z"
       id="path146" />
    <path
       style="fill:#c83434;fill-opacity:1;fill-rule:evenodd;stroke:none"
       d="m 143.563,66.2886 v -4.3 h 0.7 v 4.3 z"
       id="path148" />
    <path
       style="fill:#c83434;fill-opacity:1;fill-rule:evenodd;stroke:none"
       d="m 144.563,66.2886 v -4.3 h 0.7 v 4.3 z"
       id="path150" />
    <path
       style="fill:#c83434;fill-opacity:1;fill-rule:evenodd;stroke:none"
       d="m 145.563,66.2886 v -4.3 h 0.7 v 4.3 z"
       id="path152" />
    <path
       style="fill:#c83434;fill-opacity:1;fill-rule:evenodd;stroke:none"
       d="m 146.563,66.2886 v -4.3 h 0.7 v 4.3 z"
       id="path154" />
    <path
       style="fill:#c83434;fill-opacity:1;fill-rule:evenodd;stroke:none"
       d="m 149.563,66.2886 v -4.3 h 0.7 v 4.3 z"
       id="path156" />
    <path
       style="fill:#c83434;fill-opacity:1;fill-rule:evenodd;stroke:none"
       d="m 150.563,66.2886 v -4.3 h 0.7 v 4.3 z"
       id="path158" />
    <path
       style="fill:#c83434;fill-opacity:1;fill-rule:evenodd;stroke:none"
       d="m 151.563,66.2886 v -4.3 h 0.7 v 4.3 z"
       id="path160" />
    <path
       style="fill:#c83434;fill-opacity:1;fill-rule:evenodd;stroke:none"
       d="m 152.563,66.2886 v -4.3 h 0.7 v 4.3 z"
       id="path162" />
    <path
       style="fill:#c83434;fill-opacity:1;fill-rule:evenodd;stroke:none"
       d="m 153.563,66.2886 v -4.3 h 0.7 v 4.3 z"
       id="path164" />
    <path
       style="fill:#c83434;fill-opacity:1;fill-rule:evenodd;stroke:none"
       d="m 154.563,66.2886 v -4.3 h 0.7 v 4.3 z"
       id="path166" />
    <path
       style="fill:#c83434;fill-opacity:1;fill-rule:evenodd;stroke:none"
       d="m 155.563,66.2886 v -4.3 h 0.7 v 4.3 z"
       id="path168" />
  </g>
  <g
     style="fill:none;stroke:#c83434;stroke-width:0.5;stroke-linecap:round;stroke-linejoin:round;stroke-opacity:1"
     id="g176"
     transform="translate(-103.99391,-58.308979)">
    <path
       d="m 142.913,64.1386 h -3"
       id="path172" />
    <path
       d="m 144.913,64.1386 h 2"
       id="path174" />
  </g>
  <g
     style="fill:none;stroke:#c83434;stroke-width:0.6;stroke-linecap:round;stroke-linejoin:round;stroke-opacity:1"
     id="g180"
     transform="translate(-103.99391,-58.308979)">
    <path
       d="m 151.913,64.1386 -4e-4,-4e-4"
       id="path178" />
  </g>
  <g
     style="fill:none;stroke:#c83434;stroke-width:0.5;stroke-linecap:round;stroke-linejoin:round;stroke-opacity:1"
     id="g184"
     transform="translate(-103.99391,-58.308979)">
    <path
       d="m 151.9126,64.1382 h -1.853"
       id="path182" />
  </g>
  <g
     style="fill:none;stroke:#c83434;stroke-width:0.16;stroke-linecap:round;stroke-linejoin:round;stroke-opacity:1"
     id="g190"
     transform="translate(-103.99391,-58.308979)">
    <path
       d="M 138.913,66.1561 V 64.1386"
       id="path186" />
    <path
       d="M 136.913,66.1463 V 64.1386"
       id="path188" />
  </g>
</svg>
